<?xml version="1.0" encoding="UTF-8" standalone="no"?>
<svg
   version="1.1"
   id="body"
   width="5.5in"
   height="3in"
   viewBox="0 0 0.6875 0.375"
   preserveAspectRatio="none"
   sodipodi:docname="model.svg"
   inkscape:version="1.1.2 (0a00cf5339, 2022-02-04)"
   xmlns:inkscape="http://www.inkscape.org/namespaces/inkscape"
   xmlns:sodipodi="http://sodipodi.sourceforge.net/DTD/sodipodi-0.dtd"
   xmlns="http://www.w3.org/2000/svg"
   xmlns:svg="http://www.w3.org/2000/svg"
   xmlns:rdf="http://www.w3.org/1999/02/22-rdf-syntax-ns#"
   xmlns:cc="http://creativecommons.org/ns#"
   xmlns:dc="http://purl.org/dc/elements/1.1/">
  <defs
     id="defs105">
    <marker
       style="overflow:visible"
       id="marker60789"
       refX="0"
       refY="0"
       orient="auto"
       inkscape:stockid="Arrow2Lend"
       inkscape:isstock="true">
      <path
         transform="matrix(-1.1,0,0,-1.1,-1.1,0)"
         d="M 8.7185878,4.0337352 -2.2072895,0.01601326 8.7185884,-4.0017078 c -1.7454984,2.3720609 -1.7354408,5.6174519 -6e-7,8.035443 z"
         style="fill:context-stroke;fill-rule:evenodd;stroke:context-stroke;stroke-width:0.625;stroke-linejoin:round"
         id="path60787" />
    </marker>
    <marker
       style="overflow:visible"
       id="Arrow2Lend"
       refX="0"
       refY="0"
       orient="auto"
       inkscape:stockid="Arrow2Lend"
       inkscape:isstock="true">
      <path
         transform="matrix(-1.1,0,0,-1.1,-1.1,0)"
         d="M 8.7185878,4.0337352 -2.2072895,0.01601326 8.7185884,-4.0017078 c -1.7454984,2.3720609 -1.7354408,5.6174519 -6e-7,8.035443 z"
         style="fill:context-stroke;fill-rule:evenodd;stroke:context-stroke;stroke-width:0.625;stroke-linejoin:round"
         id="path3674" />
    </marker>
    <marker
       style="overflow:visible"
       id="marker60691"
       refX="0"
       refY="0"
       orient="auto"
       inkscape:stockid="Arrow1Mend"
       inkscape:isstock="true">
      <path
         transform="matrix(-0.4,0,0,-0.4,-4,0)"
         style="fill:context-stroke;fill-rule:evenodd;stroke:context-stroke;stroke-width:1pt"
         d="M 0,0 5,-5 -12.5,0 5,5 Z"
         id="path60689" />
    </marker>
    <marker
       style="overflow:visible"
       id="Arrow1Mend"
       refX="0"
       refY="0"
       orient="auto"
       inkscape:stockid="Arrow1Mend"
       inkscape:isstock="true">
      <path
         transform="matrix(-0.4,0,0,-0.4,-4,0)"
         style="fill:context-stroke;fill-rule:evenodd;stroke:context-stroke;stroke-width:1pt"
         d="M 0,0 5,-5 -12.5,0 5,5 Z"
         id="path3662" />
    </marker>
    <marker
       style="overflow:visible"
       id="Arrow1Lend"
       refX="0"
       refY="0"
       orient="auto"
       inkscape:stockid="Arrow1Lend"
       inkscape:isstock="true">
      <path
         transform="matrix(-0.8,0,0,-0.8,-10,0)"
         style="fill:context-stroke;fill-rule:evenodd;stroke:context-stroke;stroke-width:1pt"
         d="M 0,0 5,-5 -12.5,0 5,5 Z"
         id="path3656" />
    </marker>
  </defs>
  <sodipodi:namedview
     id="namedview103"
     pagecolor="#ffffff"
     bordercolor="#666666"
     borderopacity="1.0"
     inkscape:pageshadow="2"
     inkscape:pageopacity="0.0"
     inkscape:pagecheckerboard="0"
     inkscape:document-units="in"
     showgrid="false"
     inkscape:zoom="0.87973485"
     inkscape:cx="118.78579"
     inkscape:cy="367.15608"
     inkscape:window-width="1853"
     inkscape:window-height="1039"
     inkscape:window-x="0"
     inkscape:window-y="0"
     inkscape:window-maximized="1"
     inkscape:current-layer="body"
     inkscape:snap-path-clip="true"
     height="4.6999998in" />
  <title
     id="title2">SVG drawing</title>
  <desc
     id="desc4">This was produced by version 4.4 of GNU libplot, a free library for exporting 2-D vector graphics.</desc>
  <metadata
     id="metadata922">
    <rdf:RDF>
      <cc:Work
         rdf:about="">
        <dc:title>SVG drawing</dc:title>
      </cc:Work>
    </rdf:RDF>
  </metadata>
  <g
     id="g3582"
     transform="matrix(0.25763544,0,0,0.25763544,0.10421214,-0.02517702)"
     style="stroke:#0000ff;stroke-width:0.00822217;stroke-miterlimit:10.433;stroke-dasharray:none;stroke-opacity:1">
    <polyline
       points="55.156,34.5 55.562,35.016 55.973,35.527 56.379,36.043 56.785,36.559 57.191,37.074 57.598,37.586 58.004,38.102 58.41,38.617 58.82,39.129 59.227,39.645 59.633,40.16 60.039,40.676 60.445,41.188 60.852,41.703 61.262,42.219 61.668,42.73 62.074,43.246 62.48,43.762 62.887,44.277 63.293,44.789 63.703,45.305 64.109,45.82 64.516,46.332 64.922,46.848 65.328,47.363 65.734,47.879 66.141,48.391 66.551,48.906 66.957,49.422 67.363,49.934 67.77,50.449 68.176,50.965 68.582,51.477 68.992,51.992 69.398,52.508 69.805,53.023 70.211,53.535 70.617,54.051 71.023,54.566 71.434,55.078 71.84,55.594 72.246,56.109 72.652,56.625 73.059,57.137 73.465,57.652 73.871,58.168 74.281,58.68 74.688,59.195 75.094,59.711 75.5,60.227 75.906,60.738 76.316,61.254 76.723,61.77 77.129,62.281 77.535,62.797 77.941,63.312 78.348,63.828 78.754,64.34 79.164,64.855 79.57,65.371 79.977,65.883 80.383,66.398 80.789,66.914 81.195,67.43 81.605,67.941 82.012,68.457 82.418,68.973 82.824,69.484 83.23,70 83.637,70.516 84.047,71.031 84.453,71.543 84.859,72.059 85.266,72.574 85.672,73.086 86.078,73.602 86.484,74.117 86.895,74.633 87.301,75.145 87.707,75.66 88.113,76.176 88.52,76.688 88.926,77.203 89.336,77.719 89.742,78.234 90.148,78.746 90.555,79.262 90.961,79.777 91.367,80.289 91.777,80.805 92.184,81.32 92.59,81.832 92.996,82.348 93.402,82.863 93.809,83.379 94.215,83.891 94.625,84.406 95.031,84.922 95.438,85.434 95.844,85.949 96.25,85.949 96.66,85.949 97.066,85.949 97.473,85.949 97.879,85.949 98.285,85.949 98.691,85.949 99.102,85.949 99.508,85.949 99.914,85.949 100.32,85.949 100.73,85.949 101.13,85.949 101.54,85.949 101.95,85.949 102.36,85.949 102.76,85.949 103.17,85.949 103.57,85.949 103.98,85.949 104.39,85.949 104.8,85.949 105.2,85.949 105.61,85.949 106.02,85.949 106.42,85.949 106.83,85.949 107.24,85.949 107.64,85.949 108.05,85.949 108.46,85.949 108.86,85.949 109.27,85.949 109.68,85.949 110.09,85.949 110.49,85.949 110.9,85.949 111.31,85.949 111.71,85.949 112.12,85.949 112.53,85.949 112.93,85.949 113.34,85.949 113.75,85.949 114.15,85.949 114.56,85.949 114.97,85.949 115.38,85.949 115.78,85.949 116.19,85.949 116.59,85.949 117,85.949 117.41,85.949 117.82,85.949 118.22,85.949 118.63,85.949 119.04,85.949 119.44,85.949 119.85,85.949 120.26,85.949 120.66,85.949 121.07,85.949 121.48,85.949 121.88,85.949 122.29,85.949 122.7,85.949 123.11,85.949 123.51,85.949 123.92,85.949 124.32,85.949 124.73,85.949 125.14,85.949 125.55,85.949 125.95,85.949 126.36,85.949 126.77,85.949 127.17,85.949 127.58,85.949 127.99,85.949 128.4,85.949 128.8,85.949 129.21,85.949 129.61,85.949 130.02,85.949 130.43,85.949 130.84,85.949 131.24,85.949 131.65,85.949 132.05,85.949 132.46,85.949 132.87,85.949 133.28,85.949 133.68,85.949 134.09,85.949 134.5,85.949 134.9,85.949 135.31,85.949 135.72,85.949 136.12,85.949 136.53,85.949 136.94,85.949 137.35,85.949 137.75,85.949 138.16,85.949 138.57,85.949 138.97,85.949 139.38,85.949 139.79,85.949 140.2,85.949 140.6,85.949 141.01,85.949 141.41,85.949 141.82,85.949 142.23,85.949 142.64,85.949 143.04,85.949 143.45,85.949 143.85,85.949 144.26,85.949 144.67,85.949 145.08,85.949 145.48,85.949 145.89,85.949 146.3,85.949 146.7,85.949 147.11,85.949 147.52,85.949 147.93,85.949 148.33,85.949 148.74,85.949 149.15,85.949 149.55,85.949 149.96,85.949 150.37,85.949 150.77,85.949 151.18,85.949 151.59,85.949 151.99,85.949 152.4,85.949 152.8,85.949 153.21,85.949 153.62,85.949 154.03,85.949 154.43,85.949 154.84,85.949 155.25,85.949 155.66,85.949 156.06,85.949 156.47,85.949 156.88,85.949 157.28,85.949 157.69,85.949 158.1,85.949 158.5,85.949 158.91,85.949 159.32,85.949 159.72,85.949 160.13,85.949 160.54,85.949 160.95,85.949 161.35,85.949 161.76,85.949 162.16,85.949 162.57,85.949 162.98,85.949 163.39,85.949 163.79,85.949 164.2,85.949 164.6,85.949 165.01,85.949 165.42,85.949 165.83,85.949 166.23,85.949 166.64,85.949 167.05,85.949 167.45,85.949 167.86,85.949 168.27,85.949 168.68,85.949 169.08,85.949 169.49,85.949 169.9,85.949 170.3,85.949 170.71,85.949 171.12,85.949 171.52,85.949 171.93,85.949 172.34,85.949 172.74,85.949 173.15,85.949 173.56,85.949 173.96,85.949 174.37,85.949 174.78,85.949 175.18,85.949 175.59,85.949 176,85.949 176.41,85.949 176.81,85.949 177.22,85.949 177.62,85.949 178.04,85.949 178.44,85.949 178.85,85.949 179.25,85.949 179.66,85.949 180.07,85.949 180.48,85.949 180.88,85.949 181.29,85.949 181.7,85.949 182.1,85.949 182.51,85.949 182.91,85.949 183.32,85.949 183.73,85.949 184.14,85.949 184.54,85.949 184.95,85.949 185.35,85.949 185.77,85.949 186.17,85.949 186.58,85.949 186.98,85.949 187.39,85.949 187.8,85.949 188.2,85.949 188.61,85.949 189.02,85.949 189.43,85.949 189.83,85.949 190.24,85.949 190.65,85.949 191.05,85.949 191.46,85.949 191.87,85.949 192.27,85.949 192.68,85.949 193.09,85.949 193.49,85.949 193.9,85.949 194.31,85.949 194.71,85.949 195.12,85.949 195.53,85.949 195.93,85.949 196.34,85.949 196.75,85.949 197.16,85.949 197.56,85.949 197.97,85.949 198.38,85.949 198.79,85.949 199.19,85.949 199.6,85.949 200,85.949 200.41,85.949 200.82,85.949 201.23,85.949 201.63,85.949 202.04,85.949 202.45,85.949 202.85,85.949 203.26,85.949 203.67,85.949 204.07,85.949 204.48,85.949 204.89,85.949 205.29,85.949 205.7,85.949 206.11,85.949 206.52,85.949 206.92,85.949 207.33,85.949 207.73,85.949 208.14,85.949 208.55,85.949 208.96,85.949 209.36,85.949 209.77,85.949 210.18,85.949 210.58,85.949 210.99,85.949 211.4,85.949 211.8,85.949 212.21,85.949 212.62,85.949 213.02,85.949 213.43,85.949 213.84,85.949 214.25,85.949 214.65,85.949 215.06,85.949 215.46,85.949 215.87,85.949 216.28,85.949 216.69,85.949 217.09,85.949 217.5,85.949 217.91,85.949 218.31,85.949 218.72,85.949 219.13,85.949 219.54,85.949 219.94,85.949 220.35,85.949 220.75,85.949 221.16,85.949 221.57,85.949 221.98,85.949 222.38,85.949 222.79,85.949 223.2,85.949 223.6,85.949 224.01,85.949 224.42,85.949 224.82,85.949 225.23,85.949 225.64,85.949 226.04,85.949 226.45,85.949 226.86,85.949 227.27,85.949 227.67,85.949 228.08,85.949 228.48,85.949 228.89,85.949 229.3,85.949 229.71,85.949 230.11,85.949 230.52,85.949 230.93,85.949 231.33,85.949 231.74,85.949 232.15,85.949 232.55,85.949 232.96,85.949 233.37,85.949 233.77,85.949 234.18,85.949 234.59,85.949 235,85.949 235.4,85.949 235.81,85.949 236.21,85.949 236.62,85.949 237.03,85.949 237.44,85.949 237.84,85.949 238.25,85.949 238.66,85.949 239.07,85.949 239.47,85.949 239.88,85.949 240.29,85.949 240.69,85.949 241.1,85.949 241.51,85.949 241.91,85.949 242.32,85.949 242.73,85.949 243.13,85.949 243.54,85.949 243.95,85.949 244.35,85.949 244.76,85.949 245.17,85.949 245.57,85.949 245.98,85.949 246.39,85.949 246.8,85.949 247.2,85.949 247.61,85.949 248.02,85.949 248.42,85.949 248.83,85.949 249.23,85.949 249.65,85.949 250.05,85.949 250.46,85.949 250.86,85.949 251.27,85.949 251.68,85.949 252.09,85.949 252.49,85.949 252.9,85.949 253.3,85.949 253.71,85.949 254.12,85.949 254.52,85.949 254.93,85.949 255.34,85.949 255.75,85.949 256.15,85.949 256.56,85.949 256.96,85.949 257.38,85.949 257.78,85.949 258.19,85.949 "
       stroke="#0072bd"
       stroke-width="0.50025"
       stroke-linejoin="round"
       id="polyline3137"
       transform="matrix(0.0017361,0,0,-0.0017361,-0.01497769,1.033123)"
       style="font-style:normal;font-variant:normal;font-weight:normal;font-stretch:normal;letter-spacing:normal;word-spacing:normal;text-anchor:start;fill:none;fill-opacity:1;fill-rule:evenodd;stroke:#0000ff;stroke-width:4.736;stroke-linecap:butt;stroke-miterlimit:10.433;stroke-dasharray:none;stroke-dashoffset:0;stroke-opacity:1" />
    <polyline
       points="258.19,85.949 258.59,85.949 259,85.949 259.41,85.949 259.82,85.949 260.22,85.949 260.63,85.949 261.04,85.949 261.44,85.949 261.85,85.949 262.26,85.949 262.66,85.949 263.07,85.949 263.48,85.949 263.88,85.949 264.29,85.949 264.7,85.949 265.11,85.949 265.51,85.949 265.92,85.949 266.32,85.949 266.73,85.949 267.14,85.949 267.55,85.949 267.95,85.949 268.36,85.949 268.77,85.949 269.17,85.949 269.58,85.949 269.99,85.949 270.39,85.949 270.8,85.949 271.21,85.949 271.61,85.949 272.02,85.949 272.43,85.949 272.84,85.949 273.24,85.949 273.65,85.949 274.05,85.949 274.46,85.949 274.87,85.949 275.28,85.949 275.68,85.949 276.09,85.949 276.5,85.949 276.9,85.949 277.31,85.949 277.72,85.949 278.12,85.949 278.53,85.949 278.94,85.949 279.34,85.949 279.75,85.949 280.16,85.949 280.57,85.949 280.97,85.949 281.38,85.949 281.79,85.949 282.2,85.949 282.6,85.949 283.01,85.949 283.41,85.949 283.82,85.949 284.23,85.949 284.64,85.949 285.04,85.949 285.45,85.949 285.86,85.949 286.26,85.949 286.67,85.949 287.07,85.949 287.48,85.949 287.89,85.949 288.3,85.949 288.7,85.949 289.11,85.949 289.52,85.949 289.92,85.949 290.33,85.949 290.74,85.949 291.14,85.949 291.55,85.949 291.96,85.949 292.36,85.949 292.77,85.949 293.18,85.949 293.59,85.949 293.99,85.949 294.4,85.949 294.8,85.949 295.21,85.949 295.62,85.949 296.03,85.949 296.43,85.949 296.84,85.949 297.25,85.949 297.65,85.949 298.06,85.949 298.47,85.949 298.88,85.949 299.28,85.949 299.69,85.949 300.1,85.434 300.5,84.922 300.91,84.406 301.32,83.891 301.72,83.379 302.13,82.863 302.54,82.348 302.95,81.832 303.35,81.32 303.76,80.805 304.16,80.289 304.57,79.777 304.98,79.262 305.39,78.746 305.79,78.234 306.2,77.719 306.61,77.203 307.01,76.688 307.42,76.176 307.83,75.66 308.23,75.145 308.64,74.633 309.05,74.117 309.45,73.602 309.86,73.086 310.27,72.574 310.68,72.059 311.08,71.543 311.49,71.031 311.89,70.516 312.3,70 312.71,69.484 313.12,68.973 313.52,68.457 313.93,67.941 314.34,67.43 314.74,66.914 315.15,66.398 315.55,65.883 315.96,65.371 316.37,64.855 316.78,64.34 317.18,63.828 317.59,63.312 318,62.797 318.41,62.281 318.81,61.77 319.22,61.254 319.62,60.738 320.03,60.227 320.44,59.711 320.85,59.195 321.25,58.68 321.66,58.168 322.07,57.652 322.47,57.137 322.88,56.625 323.29,56.109 323.7,55.594 324.1,55.078 324.51,54.566 324.91,54.051 325.32,53.535 325.73,53.023 326.14,52.508 326.54,51.992 326.95,51.477 327.36,50.965 327.76,50.449 328.17,49.934 328.58,49.422 328.98,48.906 329.39,48.391 329.8,47.879 330.2,47.363 330.61,46.848 331.02,46.332 331.43,45.82 331.83,45.305 332.24,44.789 332.64,44.277 333.05,43.762 333.46,43.246 333.87,42.73 334.27,42.219 334.68,41.703 335.09,41.188 335.49,40.676 335.9,40.16 336.31,39.645 336.71,39.129 337.12,38.617 337.53,38.102 337.93,37.586 338.34,37.074 338.75,36.559 339.16,36.043 339.56,35.527 339.97,35.016 340.38,34.5 "
       stroke="#0072bd"
       stroke-width="0.50025"
       stroke-linejoin="round"
       id="polyline3139"
       transform="matrix(0.0017361,0,0,-0.0017361,-0.01497769,1.033123)"
       style="font-style:normal;font-variant:normal;font-weight:normal;font-stretch:normal;letter-spacing:normal;word-spacing:normal;text-anchor:start;fill:none;fill-opacity:1;fill-rule:evenodd;stroke:#0000ff;stroke-width:4.736;stroke-linecap:butt;stroke-miterlimit:10.433;stroke-dasharray:none;stroke-dashoffset:0;stroke-opacity:1" />
  </g>
  <path
     style="fill:none;fill-opacity:1;stroke:#ff0000;stroke-width:0.00211832;stroke-linecap:butt;stroke-linejoin:miter;stroke-miterlimit:4;stroke-dasharray:none;stroke-opacity:1"
     d="M 0.1250233,0.12817081 H 0.25259821"
     id="path3867" />
  <path
     style="fill:none;fill-opacity:1;stroke:#0000ff;stroke-width:0.0025;stroke-linecap:butt;stroke-linejoin:miter;stroke-miterlimit:4;stroke-dasharray:none;stroke-opacity:1"
     d="M 0.33632495,0.22345701 H 0.47973169"
     id="path3867-3"
     sodipodi:nodetypes="cc" />
  <path
     style="fill:none;stroke:#000000;stroke-width:0.00211832;stroke-linecap:butt;stroke-linejoin:miter;stroke-miterlimit:4;stroke-dasharray:none;stroke-opacity:1"
     d="m 0.12478149,0.0908702 h 0.0195922 l 4.8684e-4,-5.084e-4 4.4658e-4,-5.0566e-4 4.4767e-4,-4.919e-4 4.4766e-4,-4.6169e-4 4.4658e-4,-4.2596e-4 4.4766e-4,-3.7374e-4 4.4657e-4,-3.1329e-4 4.4767e-4,-2.4184e-4 4.4739e-4,-1.6488e-4 4.4657e-4,-8.519e-5 4.4767e-4,5.49e-6 4.4767e-4,9.344e-5 4.4657e-4,1.8138e-4 4.4767e-4,2.6931e-4 4.4766e-4,3.4902e-4 4.4657e-4,4.2595e-4 4.4767e-4,4.8917e-4 4.4767e-4,5.4687e-4 4.4657e-4,5.9085e-4 4.4767e-4,6.2107e-4 4.4656e-4,6.3757e-4 4.4767e-4,6.3481e-4 4.4767e-4,6.2383e-4 4.4657e-4,5.9002e-4 4.4767e-4,5.4412e-4 4.474e-4,4.8422e-4 4.4657e-4,4.0892e-4 4.4766e-4,3.2318e-4 4.4795e-4,2.2535e-4 4.4519e-4,1.2036e-4 4.4794e-4,9.62e-6 4.4795e-4,-1.0635e-4 4.4794e-4,-2.2095e-4 4.4794e-4,-3.339e-4 4.4519e-4,-4.4327e-4 4.4795e-4,-5.455e-4 4.4794e-4,-6.3536e-4 4.452e-4,-7.1451e-4 4.4794e-4,-7.7772e-4 4.4795e-4,-8.2444e-4 4.4794e-4,-8.5156e-4 4.4794e-4,-8.6004e-4 4.4519e-4,-8.4903e-4 4.4795e-4,-8.1344e-4 4.4794e-4,-7.5848e-4 4.452e-4,-6.8153e-4 4.4794e-4,-5.881e-4 4.4795e-4,-4.7817e-4 4.4794e-4,-3.4626e-4 4.4519e-4,-2.0337e-4 4.4794e-4,-4.946e-5 4.4795e-4,1.0993e-4 4.4794e-4,2.748e-4 4.4794e-4,4.4245e-4 4.452e-4,6.0184e-4 4.4795e-4,7.5574e-4 4.4794e-4,9.0155e-4 4.4794e-4,0.001028 4.4519e-4,0.001141 4.4795e-4,0.001225 4.4794e-4,0.001289 4.4795e-4,0.001325 4.4519e-4,0.001331 4.4794e-4,0.001303 4.4794e-4,0.001246 4.452e-4,0.001155 4.4795e-4,0.00103 4.4794e-4,8.736e-4 4.4794e-4,6.8813e-4 4.4795e-4,4.7322e-4 4.4519e-4,2.3304e-4 4.4794e-4,-2.913e-5 4.4794e-4,-3.1108e-4 4.452e-4,-6.0569e-4 4.4795e-4,-9.1003e-4 4.4794e-4,-0.001219 4.4794e-4,-0.001528 4.4795e-4,-0.00183 4.4519e-4,-0.00212 4.4794e-4,-0.002395 4.4794e-4,-0.002646 4.452e-4,-0.002872 4.4795e-4,-0.003066 4.4794e-4,-0.003223 4.4794e-4,-0.003347 4.4519e-4,-0.003422 4.4795e-4,-0.003457 4.4794e-4,-0.003444 4.4794e-4,-0.003388 4.4795e-4,-0.003281 4.4519e-4,-0.003133 4.4794e-4,-0.002938 4.4794e-4,-0.002701 4.452e-4,-0.002427 4.4795e-4,-0.002116 4.4794e-4,-0.001775 4.4794e-4,-0.00141 4.4795e-4,-0.001022 4.4519e-4,-6.2108e-4 4.4794e-4,-2.0611e-4 4.4794e-4,2.0611e-4 4.452e-4,6.2108e-4 4.4795e-4,0.001022 4.4794e-4,0.00141 4.4794e-4,0.001775 4.4795e-4,0.002116 4.4519e-4,0.002427 4.4794e-4,0.002701 4.4794e-4,0.002938 4.452e-4,0.003133 4.4795e-4,0.003281 4.4794e-4,0.003388 4.4794e-4,0.003444 4.4795e-4,0.003457 4.4519e-4,0.003422 4.4794e-4,0.003347 4.4794e-4,0.003223 4.4795e-4,0.003066 4.4519e-4,0.002872 4.4794e-4,0.002646 4.4794e-4,0.002395 4.452e-4,0.00212 4.4795e-4,0.00183 4.4794e-4,0.001528 4.4794e-4,0.001219 4.4795e-4,9.1003e-4 4.4519e-4,6.0569e-4 4.4794e-4,3.1108e-4 4.4795e-4,2.913e-5 4.452e-4,-2.3304e-4 4.4794e-4,-4.7322e-4 4.4794e-4,-6.8813e-4 4.4795e-4,-8.736e-4 4.4794e-4,-0.00103 4.4519e-4,-0.001155 4.4794e-4,-0.001246 4.4795e-4,-0.001303 4.452e-4,-0.001331 4.4794e-4,-0.001325 4.4794e-4,-0.001289 4.4795e-4,-0.001225 4.4794e-4,-0.001141 4.4519e-4,-0.001028 4.4794e-4,-9.0155e-4 4.4795e-4,-7.5574e-4 4.4519e-4,-6.0184e-4 4.4794e-4,-4.4245e-4 4.4795e-4,-2.748e-4 4.4794e-4,-1.0993e-4 4.4794e-4,4.946e-5 4.452e-4,2.0337e-4 4.4794e-4,3.4626e-4 4.4795e-4,4.7817e-4 4.4794e-4,5.881e-4 4.4519e-4,6.8153e-4 4.4794e-4,7.5848e-4 4.4795e-4,8.1344e-4 4.452e-4,8.4903e-4 4.4794e-4,8.6004e-4 4.4794e-4,8.5156e-4 4.4795e-4,8.2444e-4 4.4794e-4,7.7772e-4 4.4519e-4,7.1451e-4 4.4794e-4,6.3536e-4 4.4795e-4,5.455e-4 4.452e-4,4.4327e-4 4.4794e-4,3.339e-4 4.4794e-4,2.2095e-4 4.4795e-4,1.0635e-4 4.4794e-4,-9.62e-6 4.4519e-4,-1.2036e-4 4.4794e-4,-2.2535e-4 4.4795e-4,-3.2318e-4 4.4519e-4,-4.0892e-4 4.4795e-4,-4.8422e-4 4.4794e-4,-5.4412e-4 4.4794e-4,-5.9002e-4 4.4794e-4,-6.2383e-4 4.452e-4,-6.3481e-4 4.4794e-4,-6.3757e-4 4.4795e-4,-6.2107e-4 4.4519e-4,-5.9085e-4 4.4794e-4,-5.4687e-4 4.4794e-4,-4.8917e-4 4.4795e-4,-4.2595e-4 4.452e-4,-3.4902e-4 4.4794e-4,-2.6931e-4 4.4794e-4,-1.8138e-4 4.4795e-4,-9.344e-5 4.4794e-4,-5.49e-6 4.4519e-4,8.519e-5 4.4795e-4,1.6488e-4 4.4794e-4,2.4184e-4 4.452e-4,3.1329e-4 4.4794e-4,3.7374e-4 4.4795e-4,4.2596e-4 4.4794e-4,4.6169e-4 4.4794e-4,4.919e-4 4.4519e-4,5.0566e-4 4.4795e-4,5.084e-4 h 0.019553"
     id="path4160"
     sodipodi:nodetypes="ccccccccccccccccccccccccccccccccccccccccccccccccccccccccccccccccccccccccccccccccccccccccccccccccccccccccccccccccccccccccccccccccccccccccccccccccccccccccccccccccccccccccccccccccccccccccccccccccccccccccccc" />
  <g
     id="g1287"
     transform="matrix(0.26469903,0,0,0.26469903,0.36962914,-0.03591414)"
     style="stroke:#ff0000;stroke-width:0.00944469;stroke-miterlimit:4;stroke-dasharray:none;stroke-opacity:1">
    <polyline
       points="56.047,127.41 56.594,126.31 57.141,125.2 57.691,124.1 58.238,122.99 58.785,121.89 59.332,120.78 59.879,119.68 60.426,118.58 60.977,117.47 61.523,116.37 62.07,115.26 62.617,114.16 63.164,113.06 63.711,111.95 64.262,110.85 64.809,109.75 65.355,108.64 65.902,107.54 66.449,106.43 66.996,105.33 67.547,104.23 68.094,103.12 68.641,102.02 69.188,100.92 69.734,99.809 70.281,98.707 70.828,97.602 71.379,96.5 71.926,95.398 72.473,94.289 73.02,93.191 73.566,92.082 74.113,90.98 74.664,89.875 75.211,88.773 75.758,87.672 76.305,86.562 76.852,85.465 77.398,84.355 77.949,83.254 78.496,82.148 79.043,81.047 79.59,79.945 80.137,78.836 80.684,77.738 81.234,76.629 81.781,75.527 82.328,74.422 82.875,73.32 83.422,72.211 83.969,71.109 84.516,70.012 85.066,68.902 85.613,67.801 86.16,66.691 86.707,65.594 87.254,64.484 87.801,63.383 88.352,62.285 88.898,61.176 89.445,60.074 89.992,58.965 90.539,57.867 91.086,56.758 91.637,55.656 92.184,54.559 92.73,54.559 93.277,55.656 93.824,56.758 94.371,57.867 94.922,58.965 95.469,60.074 96.016,61.176 96.562,62.285 97.109,63.383 97.656,64.484 98.203,65.594 98.754,66.691 99.301,67.801 99.848,68.902 100.39,70.012 100.94,71.109 101.49,72.211 102.04,73.32 102.59,74.422 103.13,75.527 103.68,76.629 104.23,77.738 104.77,78.836 105.32,79.945 105.87,81.047 106.42,82.148 106.96,83.254 107.51,84.355 108.06,85.465 108.61,86.562 109.16,87.672 109.7,88.773 110.25,89.875 110.8,90.98 111.34,92.082 111.89,93.191 112.44,94.289 112.99,95.398 113.54,96.5 114.08,97.602 114.63,98.707 115.18,99.809 115.73,100.92 116.27,102.02 116.82,103.12 117.37,104.23 117.91,105.33 118.46,106.43 119.01,107.54 119.56,108.64 120.11,109.75 120.65,110.85 121.2,111.95 121.75,113.06 122.3,114.16 122.84,115.26 123.39,116.37 123.94,117.47 124.48,118.58 125.03,119.68 125.58,120.78 126.13,121.89 126.68,122.99 127.22,124.1 127.77,125.2 128.32,126.31 128.86,127.41 129.41,127.41 129.96,129.89 130.51,132.38 131.05,134.86 131.6,137.35 132.15,139.83 132.7,142.31 133.25,144.8 133.79,147.29 134.34,149.77 134.89,152.26 135.43,154.74 135.98,157.23 136.53,159.71 137.08,162.2 137.62,164.68 138.17,165.59 138.72,165.59 139.27,165.59 139.82,165.59 140.36,165.59 140.91,165.59 141.46,165.59 142,165.59 142.55,165.59 143.1,165.59 143.65,165.59 144.2,165.59 144.74,165.59 145.29,165.59 145.84,165.59 146.39,165.59 146.93,165.59 147.48,165.59 148.03,165.59 148.57,165.59 149.12,165.59 149.67,165.59 150.22,165.59 150.77,165.59 151.31,165.59 151.86,165.59 152.41,165.59 152.95,165.59 153.5,165.59 154.05,165.59 154.6,165.59 155.15,165.59 155.69,165.59 156.24,165.59 156.79,165.59 157.34,165.59 157.88,165.59 158.43,165.59 158.98,165.59 159.52,165.59 160.07,165.59 160.62,165.59 161.17,165.59 161.71,165.59 162.26,165.59 162.81,165.59 163.36,165.59 163.91,165.59 164.45,165.59 165,165.59 165.55,165.59 166.09,165.59 166.64,165.59 167.19,165.59 167.74,165.59 168.29,165.59 168.83,165.59 169.38,165.59 169.93,165.59 170.48,165.59 171.02,165.59 171.57,165.59 172.12,165.59 172.66,165.59 173.21,165.59 173.76,165.59 174.31,165.59 174.85,165.59 175.4,165.59 175.95,165.59 176.5,165.59 177.05,165.59 177.59,165.59 178.14,165.59 178.69,165.59 179.23,165.59 179.78,165.59 180.33,165.59 180.88,165.59 181.43,165.59 181.97,165.59 182.52,165.59 183.07,165.59 183.61,165.59 184.16,165.59 184.71,165.59 185.26,165.59 185.8,165.59 186.35,165.59 186.9,165.59 187.45,165.59 188,165.59 188.54,165.59 189.09,165.59 189.64,165.59 190.18,165.59 190.73,165.59 191.28,165.59 191.83,165.59 192.38,165.59 192.92,165.59 193.47,165.59 194.02,165.59 194.57,165.59 195.11,165.59 195.66,165.59 196.21,165.59 196.75,165.59 197.3,165.59 197.85,165.59 198.4,165.59 198.95,165.59 199.49,165.59 200.04,165.59 200.59,165.59 201.14,165.59 201.68,165.59 202.23,165.59 202.78,165.59 203.32,165.59 203.87,165.59 204.42,165.59 204.97,165.59 205.52,165.59 206.06,165.59 206.61,165.59 207.16,165.59 207.7,165.59 208.25,165.59 208.8,165.59 209.35,165.59 209.9,165.59 210.44,165.59 210.99,165.59 211.54,165.59 212.09,165.59 212.63,165.59 213.18,165.59 213.73,165.59 214.27,165.59 214.82,165.59 215.37,165.59 215.92,165.59 216.46,165.59 217.01,165.59 217.56,165.59 218.11,165.59 218.66,165.59 219.2,165.59 219.75,165.59 220.3,165.59 220.84,165.59 221.39,165.59 221.94,165.59 222.49,165.59 223.04,165.59 223.58,165.59 224.13,165.59 224.68,165.59 225.23,165.59 225.77,165.59 226.32,165.59 226.87,165.59 227.41,165.59 227.96,165.59 228.51,165.59 229.06,165.59 229.6,165.59 230.15,165.59 230.7,165.59 231.25,165.59 231.8,165.59 232.34,165.59 232.89,165.59 233.44,165.59 233.98,165.59 234.53,165.59 235.08,165.59 235.63,165.59 236.18,165.59 236.72,165.59 237.27,165.59 237.82,165.59 238.36,165.59 238.91,165.59 239.46,165.59 240.01,165.59 240.55,165.59 241.1,165.59 241.65,165.59 242.2,165.59 242.75,165.59 243.29,165.59 243.84,165.59 244.39,165.59 244.93,165.59 245.48,165.59 246.03,165.59 246.58,165.59 247.12,165.59 247.67,165.59 248.22,165.59 248.77,165.59 249.32,165.59 249.86,165.59 250.41,165.59 250.96,165.59 251.5,165.59 252.05,165.59 252.6,165.59 253.15,165.59 253.7,165.59 254.24,165.59 254.79,165.59 255.34,165.59 255.89,165.59 256.43,165.59 256.98,165.59 257.53,165.59 258.07,165.59 258.62,165.59 259.17,165.59 259.72,165.59 260.27,165.59 260.81,165.59 261.36,165.59 261.91,165.59 262.45,165.59 263,165.59 263.55,165.59 264.1,165.59 264.64,165.59 265.19,165.59 265.74,165.59 266.29,165.59 266.84,165.59 267.38,165.59 267.93,165.59 268.48,165.59 269.02,165.59 269.57,165.59 270.12,166.72 270.67,167.84 271.21,168.96 271.76,170.08 272.31,171.2 272.86,172.32 273.41,173.45 273.95,174.56 274.5,175.69 275.05,176.81 275.59,177.93 276.14,179.05 276.69,180.17 277.24,181.29 277.79,182.41 278.33,183.53 278.88,184.65 279.43,185.77 279.98,186.9 280.52,188.02 281.07,189.13 281.62,190.26 282.16,191.38 282.71,192.5 283.26,193.62 283.81,194.74 284.36,195.86 284.9,196.98 285.45,198.1 286,199.23 286.55,200.35 287.09,201.46 287.64,202.59 288.19,203.71 288.73,204.83 289.28,205.95 289.83,207.07 290.38,208.19 290.93,209.32 291.47,210.43 292.02,211.56 292.57,212.67 293.11,213.8 293.66,214.92 294.21,216.04 294.76,217.16 295.3,218.28 295.85,219.4 296.4,220.52 296.95,221.64 297.5,222.77 298.04,223.89 298.59,225 299.14,226.13 299.68,227.24 300.23,228.37 300.78,229.49 301.33,230.61 301.88,231.73 302.42,232.85 302.97,233.97 303.52,235.1 304.07,236.21 304.61,237.34 305.16,238.46 305.71,239.57 306.25,240.7 306.8,241.82 307.35,242.94 307.9,244.06 308.45,245.18 308.99,246.3 309.54,247.43 310.09,248.54 310.64,249.67 311.18,250.79 311.73,251.91 312.28,253.03 312.82,254.15 313.37,255.27 313.92,255.27 314.47,254.15 315.02,253.03 315.56,251.91 316.11,250.79 316.66,249.67 317.2,248.54 317.75,247.43 318.3,246.3 318.85,245.18 319.39,244.06 319.94,242.94 320.49,241.82 321.04,240.7 321.59,239.57 322.13,238.46 322.68,237.34 323.23,236.21 323.77,235.1 324.32,233.97 324.87,232.85 325.42,231.73 325.96,230.61 326.51,229.49 327.06,228.37 327.61,227.24 328.16,226.13 328.7,225 329.25,223.89 "
       stroke="#0072bd"
       stroke-width="0.50025"
       stroke-linejoin="round"
       id="polyline1088"
       transform="matrix(0.0017361,0,0,-0.0017361,-0.21981189,0.84557039)"
       style="font-style:normal;font-variant:normal;font-weight:normal;font-stretch:normal;letter-spacing:normal;word-spacing:normal;text-anchor:start;fill:none;fill-opacity:1;fill-rule:evenodd;stroke:#ff0000;stroke-width:5.44018;stroke-linecap:butt;stroke-miterlimit:4;stroke-dasharray:none;stroke-dashoffset:0;stroke-opacity:1" />
    <polyline
       points="329.25,223.89 329.8,222.77 330.34,221.64 330.89,220.52 331.44,219.4 331.99,218.28 332.54,217.16 333.08,216.04 333.63,214.92 334.18,213.8 334.73,212.67 335.27,211.56 335.82,210.43 336.37,209.32 336.91,208.19 337.46,207.07 338.01,205.95 338.56,204.83 339.11,203.71 339.65,202.59 340.2,201.46 340.75,200.35 341.3,199.23 341.84,198.1 342.39,196.98 342.94,195.86 343.48,194.74 344.03,193.62 344.58,192.5 345.13,191.38 345.68,190.26 346.22,189.13 346.77,188.02 347.32,186.9 347.86,185.77 348.41,184.65 348.96,183.53 349.51,182.41 350.05,181.29 350.6,180.17 351.15,179.05 351.7,177.93 352.25,176.81 352.79,175.69 353.34,174.56 353.89,173.45 354.43,172.32 354.98,171.2 355.53,170.08 356.08,168.96 356.62,167.84 357.17,166.72 357.72,165.59 358.27,164.68 358.82,162.2 359.36,159.71 359.91,157.23 360.46,154.74 361,152.26 361.55,149.77 362.1,147.29 362.65,144.8 363.2,142.31 363.74,139.83 364.29,137.35 364.84,134.86 365.39,132.38 365.93,129.89 366.48,127.41 "
       stroke="#0072bd"
       stroke-width="0.50025"
       stroke-linejoin="round"
       id="polyline1090"
       transform="matrix(0.0017361,0,0,-0.0017361,-0.21981189,0.84557039)"
       style="font-style:normal;font-variant:normal;font-weight:normal;font-stretch:normal;letter-spacing:normal;word-spacing:normal;text-anchor:start;fill:none;fill-opacity:1;fill-rule:evenodd;stroke:#ff0000;stroke-width:5.44018;stroke-linecap:butt;stroke-miterlimit:4;stroke-dasharray:none;stroke-dashoffset:0;stroke-opacity:1" />
  </g>
  <g
     id="g1291"
     transform="matrix(0.26469903,0,0,0.26469903,0.36962914,0.01024808)"
     style="stroke:#00ff00;stroke-width:0.00944469;stroke-miterlimit:4;stroke-dasharray:none;stroke-opacity:1">
    <path
       style="color:#000000;fill:#ff0000;fill-rule:evenodd;stroke:#00ff00;stroke-width:5.44018;stroke-linejoin:round;stroke-miterlimit:4;stroke-dasharray:none;stroke-opacity:1"
       d="m 91.085937,56.648437 a 0.25015,0.25015 0 0 0 -0.224609,0.138672 l -0.546875,1.101563 -0.546875,1.105469 -0.546875,1.101562 -0.546875,1.101563 -0.544922,1.101562 -0.550781,1.097656 a 0.25015,0.25015 0 0 0 -0.002,0 l -0.546875,1.101563 -0.546875,1.101562 -0.546875,1.105469 -0.546875,1.101563 -0.546875,1.101562 -0.548828,1.101563 -0.546875,1.097656 a 0.25015,0.25015 0 0 0 -0.002,0 l -0.546875,1.101562 -0.546875,1.109375 -0.546875,1.097657 -0.546875,1.101562 -0.546875,1.101563 -0.548829,1.101562 -0.546875,1.097656 a 0.25015,0.25015 0 0 0 -0.002,0 l -0.546875,1.101563 -0.546875,1.109375 -0.546875,1.101562 -0.546875,1.097657 -0.550781,1.099609 a 0.25015,0.25015 0 0 0 0,0.002 l -0.544922,1.101563 -0.546875,1.097656 a 0.25015,0.25015 0 0 0 -0.002,0 l -0.546875,1.101562 -0.546875,1.109375 -0.546875,1.101563 -0.550781,1.097656 -0.546875,1.101563 -0.544922,1.101562 L 72.25,94.240234 a 0.25015,0.25015 0 0 0 -0.002,0.002 l -0.546875,1.107422 -0.546875,1.101563 -0.550781,1.101562 -0.546875,1.097657 -0.546875,1.101562 -0.544922,1.09571 a 0.25015,0.25015 0 0 0 -0.002,0.002 l -0.546875,1.10937 -0.546875,1.09961 -0.546875,1.09961 -0.550782,1.10938 -0.546875,1.08984 a 0.25015,0.25015 0 0 0 0,0.002 l -0.546875,1.0996 -0.546875,1.11133 -0.544922,1.10742 -0.546875,1.08985 -0.550781,1.09961 a 0.25015,0.25015 0 0 0 -0.002,0.002 l -0.546875,1.10938 -0.546875,1.08984 a 0.25015,0.25015 0 0 0 0,0.002 l -0.546875,1.10938 -0.546875,1.09961 -0.544922,1.10937 -0.550781,1.08789 a 0.25015,0.25015 0 0 0 -0.002,0.002 l -0.546875,1.09961 a 0.25015,0.25015 0 0 0 0,0.002 l -0.546875,1.10937 -0.546875,1.08789 a 0.25015,0.25015 0 0 0 0,0.002 l -0.546875,1.10937 -0.546875,1.10938 -0.548828,1.08984 a 0.25015,0.25015 0 0 0 -0.002,0.002 l -0.546875,1.10938 -0.546875,1.09961 0.449218,0.22265 0.546875,-1.0996 a 0.25015,0.25015 0 0 0 0,-0.002 l 0.546875,-1.10742 0.548828,-1.08984 a 0.25015,0.25015 0 0 0 0.002,-0.002 l 0.546875,-1.10937 0.546875,-1.10938 0.544921,-1.08984 a 0.25015,0.25015 0 0 0 0.002,-0.002 l 0.546875,-1.10938 0.546875,-1.09961 0.550781,-1.08789 a 0.25015,0.25015 0 0 0 0,-0.002 l 0.546875,-1.11133 0.546875,-1.09766 a 0.25015,0.25015 0 0 0 0,-0.002 l 0.546875,-1.10937 0.544922,-1.08789 a 0.25015,0.25015 0 0 0 0.002,-0.002 l 0.546875,-1.10937 0.550781,-1.09961 0.546875,-1.08985 a 0.25015,0.25015 0 0 0 0,-0.002 l 0.546875,-1.10937 0.546875,-1.10938 0.544922,-1.09961 0.546875,-1.08984 a 0.25015,0.25015 0 0 0 0.002,0 l 0.550781,-1.11133 0.546875,-1.09961 0.546875,-1.09961 a 0.25015,0.25015 0 0 0 0,-0.002 l 0.546875,-1.10938 0.544922,-1.095704 0.548828,-1.101562 0.546875,-1.097656 0.550782,-1.101563 0.546875,-1.101562 0.546875,-1.109375 0.546875,-1.097657 0.546875,-1.101562 0.544921,-1.101563 0.550782,-1.097656 a 0.25015,0.25015 0 0 0 0.002,0 l 0.546875,-1.101562 0.546875,-1.109375 0.546875,-1.101563 0.546875,-1.097656 0.544922,-1.101563 0.550781,-1.101562 a 0.25015,0.25015 0 0 0 0.002,0 l 0.546875,-1.097656 0.546875,-1.101563 0.546875,-1.109375 0.546875,-1.101562 0.546875,-1.097657 0.548828,-1.101562 0.548828,-1.101563 0.546875,-1.101562 0.546875,-1.097656 0.546875,-1.109375 0.546875,-1.101563 0.546875,-1.097656 0.548828,-1.101563 a 0.25015,0.25015 0 0 0 0.002,0 l 0.546875,-1.101562 0.546875,-1.101563 0.546875,-1.105468 0.546875,-1.101563 0.546875,-1.101562 0.550781,-1.097657 0.544922,-1.101562 0.548828,-1.101563 0.546875,-1.101562 0.546875,-1.105469 0.476562,-0.962891 h 0.242188 l 0.476562,0.962891 0.546875,1.103516 a 0.25015,0.25015 0 0 0 0,0.002 l 0.546875,1.101562 0.546875,1.101563 0.546875,1.101562 0.550782,1.097657 0.546875,1.101562 0.546875,1.101563 0.546875,1.105468 0.546875,1.101563 0.546875,1.101562 0.546875,1.101563 0.550781,1.097656 0.546875,1.101563 0.546875,1.109375 0.542972,1.097656 0.55078,1.101562 0.54883,1.101563 0.55078,1.101562 0.54882,1.097657 0.54102,1.099609 a 0.25015,0.25015 0 0 0 0,0.002 l 0.54883,1.109375 a 0.25015,0.25015 0 0 0 0.002,0 l 0.54883,1.101563 0.53906,1.097656 a 0.25015,0.25015 0 0 0 0.002,0 l 0.54882,1.101562 0.55078,1.101563 0.54883,1.097656 0.54102,1.099609 a 0.25015,0.25015 0 0 0 0,0.002 l 0.54883,1.109375 a 0.25015,0.25015 0 0 0 0.002,0 l 0.54883,1.101562 0.55078,1.097656 0.54883,1.101563 0.53906,1.099609 a 0.25015,0.25015 0 0 0 0.002,0.002 l 0.54883,1.097657 0.55078,1.109375 0.53906,1.099609 a 0.25015,0.25015 0 0 0 0,0.002 l 0.55079,1.101563 0.55078,1.097656 0.54883,1.101562 0.55078,1.0957 0.53906,1.10938 a 0.25015,0.25015 0 0 0 0,0.002 l 0.55078,1.09961 0.55078,1.09961 0.54883,1.10937 0.53906,1.08985 a 0.25015,0.25015 0 0 0 0.002,0.002 l 0.54882,1.09961 0.54883,1.10938 0.54102,1.10937 a 0.25015,0.25015 0 0 0 0.002,0.002 l 0.54883,1.08985 0.54883,1.09961 0.55078,1.10937 a 0.25015,0.25015 0 0 0 0,0.002 l 0.55078,1.08789 0.53906,1.10937 a 0.25015,0.25015 0 0 0 0,0.002 l 0.55078,1.09961 0.54883,1.10938 a 0.25015,0.25015 0 0 0 0.002,0.002 l 0.54883,1.08789 0.53906,1.09961 0.55079,1.10938 a 0.25015,0.25015 0 0 0 0,0.002 l 0.55078,1.08984 0.53906,1.10743 a 0.25015,0.25015 0 0 0 0,0.002 l 0.55078,1.10937 a 0.25015,0.25015 0 0 0 0,0.002 l 0.54883,1.08984 0.55078,1.10938 0.55078,1.0996 a 0.25015,0.25015 0 0 0 0.22266,0.13868 h 0.54101 0.54883 0.55078 0.53906 0.55079 0.55078 0.54883 0.54101 0.54883 0.55078 0.54883 0.55078 0.53906 0.55078 0.55078 0.53907 0.55078 0.54883 0.55078 0.53906 0.55078 0.55078 0.54883 0.55078 0.53906 0.55079 0.55078 0.53906 0.55078 0.54883 0.55078 0.54883 0.54101 0.54883 0.55078 0.55078 0.53907 0.55078 0.54883 0.54101 0.54883 0.55078 0.55078 0.54883 0.54102 0.54882 0.55079 0.53906 0.55078 0.55078 0.54883 0.55078 0.53906 0.55078 0.54883 0.55078 0.54102 0.54883 0.55078 0.53906 0.55078 0.54883 0.55078 0.54102 0.54883 0.55078 0.54882 0.55079 0.53906 0.55078 0.55078 0.53906 0.55078 0.54883 0.55078 0.54883 0.54102 0.55078 0.54883 0.55078 0.53906 0.55078 0.54883 0.54102 0.55078 0.54883 0.55078 0.53906 0.55078 0.54883 0.55078 0.55078 0.53906 0.55078 0.54883 0.54102 0.54883 0.55078 0.55078 0.54883 0.54101 0.54883 0.55078 0.53906 0.55079 0.55078 0.54883 0.54101 0.54883 0.55078 0.54883 0.55078 0.53906 0.55078 0.55078 0.53907 0.55078 0.54883 0.55078 0.55078 0.53906 0.55078 0.54883 0.55078 0.53906 0.55079 0.55078 0.53906 0.55078 0.54883 0.55078 0.54883 0.54101 0.54883 0.55078 0.55078 0.53907 0.55078 0.54883 0.54101 0.54883 0.55078 0.55078 0.54883 0.54102 0.54882 0.55079 0.53906 0.55078 0.55078 0.54883 0.55078 0.53906 0.55078 0.54883 0.55078 0.54102 0.54883 0.55078 0.53906 0.55078 0.54883 0.55078 0.54102 0.54883 0.55078 0.54882 0.55079 0.53906 0.55078 0.55078 0.53906 0.55078 0.54883 0.55078 0.54883 0.54102 0.55078 0.54883 0.55078 0.53906 0.55078 0.54883 0.54102 0.55078 0.54883 0.55078 0.53906 0.55078 0.54883 0.55078 0.55078 0.53906 0.55078 0.54883 0.54102 0.54883 0.55078 0.55078 0.54883 0.54101 0.54883 0.55078 0.53906 0.55079 0.55078 0.54883 0.54101 0.54883 0.55078 0.54883 0.55078 0.53906 0.55078 0.55078 0.53907 0.55078 0.54883 0.55078 0.53906 0.55078 0.55078 0.54883 0.55078 0.53906 0.55079 0.55078 0.53906 0.55078 0.54883 0.55078 0.54883 0.54101 0.54883 0.55078 0.55078 0.53907 0.55078 0.54883 0.54101 0.54883 0.55078 0.55078 0.54883 0.54102 0.54882 0.55079 0.53906 0.55078 0.55078 0.54883 0.54101 0.54883 0.55078 0.54883 0.55078 0.54102 0.54883 0.55078 0.53906 0.39649 l 0.48046,0.96093 0.54883,1.09961 0.54102,1.09961 0.54883,1.11133 a 0.25015,0.25015 0 0 0 0.002,0 l 0.54883,1.09961 0.55078,1.10156 0.54883,1.09766 0.53906,1.09961 a 0.25015,0.25015 0 0 0 0.002,0.002 l 0.54883,1.09961 0.55078,1.10938 0.53906,1.0996 a 0.25015,0.25015 0 0 0 0.002,0.002 l 0.54883,1.09961 0.55078,1.09961 0.54882,1.09961 0.55079,1.09961 0.53906,1.0996 0.55078,1.11133 0.55078,1.09961 0.54883,1.09961 0.53906,1.09961 a 0.25015,0.25015 0 0 0 0.002,0.002 l 0.54883,1.09961 0.55078,1.09766 0.53907,1.10937 a 0.25015,0.25015 0 0 0 0,0.002 l 0.55078,1.09961 0.55078,1.10156 0.54883,1.09961 0.55078,1.09961 0.53906,1.09765 a 0.25015,0.25015 0 0 0 0,0.002 l 0.55078,1.09961 0.54883,1.10937 a 0.25015,0.25015 0 0 0 0,0.002 l 0.55078,1.0996 0.53906,1.09766 a 0.25015,0.25015 0 0 0 0.002,0.002 l 0.54883,1.09961 0.55078,1.09961 0.53906,1.09961 0.55078,1.11133 0.54883,1.09961 0.55078,1.10156 0.54883,1.09766 0.54101,1.09961 a 0.25015,0.25015 0 0 0 0,0.002 l 0.55078,1.09961 0.54883,1.09961 0.53907,1.10742 a 0.25015,0.25015 0 0 0 0.002,0.004 l 0.54883,1.09961 0.55078,1.09961 0.54883,1.09961 0.54101,1.09961 0.54883,1.10937 a 0.25015,0.25015 0 0 0 0.002,0.002 l 0.54883,1.08985 0.55078,1.10937 0.54883,1.09961 0.54102,1.09961 a 0.25015,0.25015 0 0 0 0,0.002 l 0.54882,1.09961 0.55079,1.10743 0.53906,1.0996 a 0.25015,0.25015 0 0 0 0.002,0.002 l 0.54883,1.09961 0.55078,1.10156 0.54883,1.09961 0.55078,1.09961 0.53906,1.09765 a 0.25015,0.25015 0 0 0 0,0.002 l 0.55078,1.09961 0.54883,1.10937 a 0.25015,0.25015 0 0 0 0.002,0.002 l 0.54883,1.0996 0.53907,1.09766 a 0.25015,0.25015 0 0 0 0.2246,0.14063 h 0.55079 a 0.25015,0.25015 0 0 0 0.22265,-0.13868 l 0.55078,-1.09961 a 0.25015,0.25015 0 0 0 0,-0.002 l 0.54102,-1.09961 0.54883,-1.10937 0.55078,-1.09961 0.54883,-1.09961 0.55078,-1.09961 a 0.25015,0.25015 0 0 0 0,-0.002 l 0.54101,-1.09961 0.54883,-1.09961 0.55078,-1.09961 0.54883,-1.09961 a 0.25015,0.25015 0 0 0 0.002,-0.002 l 0.53907,-1.10938 0.54882,-1.09766 0.55079,-1.10156 0.54101,-1.09961 0.54883,-1.10937 0.54883,-1.08985 a 0.25015,0.25015 0 0 0 0.002,-0.002 l 0.54883,-1.10937 0.55078,-1.09961 a 0.25015,0.25015 0 0 0 0,-0.002 l 0.53906,-1.09765 0.55078,-1.09961 0.54883,-1.09961 a 0.25015,0.25015 0 0 0 0.002,-0.004 l 0.53906,-1.10742 0.55078,-1.09961 0.54883,-1.09961 0.55078,-1.09961 a 0.25015,0.25015 0 0 0 0,-0.002 l 0.53906,-1.09961 0.55078,-1.09961 0.54883,-1.09961 a 0.25015,0.25015 0 0 0 0.002,0 l 0.54883,-1.10937 0.55078,-1.09961 a 0.25015,0.25015 0 0 0 0,-0.002 l 0.53907,-1.09961 0.55078,-1.09961 0.54882,-1.09961 a 0.25015,0.25015 0 0 0 0.002,-0.002 l 0.53906,-1.09961 0.54883,-1.10937 0.55078,-1.09961 0.55078,-1.09961 a 0.25015,0.25015 0 0 0 0,-0.002 l 0.53906,-1.09961 0.55078,-1.09766 0.54883,-1.10156 0.55078,-1.09961 0.55079,-1.10938 a 0.25015,0.25015 0 0 0 0,-0.002 l 0.53906,-1.09961 0.55078,-1.09766 -0.44922,-0.22461 -0.54883,1.09961 a 0.25015,0.25015 0 0 0 -0.002,0.002 l -0.53906,1.09961 -0.54883,1.10937 -0.55078,1.09961 -0.54883,1.09961 -0.55078,1.09961 a 0.25015,0.25015 0 0 0 0,0.002 l -0.54102,1.09961 -0.54883,1.09961 -0.55078,1.09961 -0.55078,1.11133 -0.53906,1.09961 -0.54883,1.09961 -0.55078,1.09961 a 0.25015,0.25015 0 0 0 0,0.002 l -0.54102,1.09766 -0.54882,1.09961 a 0.25015,0.25015 0 0 0 0,0.002 l -0.55079,1.10937 -0.54882,1.09961 -0.55078,1.09961 a 0.25015,0.25015 0 0 0 0,0.002 l -0.54102,1.09961 -0.54883,1.09765 -0.55078,1.10156 -0.54883,1.09961 a 0.25015,0.25015 0 0 0 -0.002,0.002 l -0.53906,1.10937 -0.54883,1.09766 -0.55078,1.09961 a 0.25015,0.25015 0 0 0 0,0.002 l -0.54102,1.09961 -0.54883,1.09961 -0.55078,1.10937 -0.54883,1.08985 a 0.25015,0.25015 0 0 0 0,0.002 l -0.55078,1.10938 -0.53906,1.09961 -0.55078,1.0996 -0.54883,1.09961 a 0.25015,0.25015 0 0 0 -0.002,0.002 l -0.53906,1.10937 -0.54883,1.09961 -0.55078,1.09961 -0.55079,1.09961 a 0.25015,0.25015 0 0 0 0,0.002 l -0.53906,1.09961 -0.55078,1.09961 -0.54883,1.09961 -0.55078,1.09961 -0.55078,1.11133 -0.53906,1.09961 -0.48047,0.96094 h -0.24024 l -0.4707,-0.96094 a 0.25015,0.25015 0 0 0 -0.002,-0.002 l -0.54883,-1.09961 -0.55078,-1.10938 -0.54883,-1.09961 -0.53906,-1.09961 a 0.25015,0.25015 0 0 0 -0.002,0 l -0.54883,-1.10156 -0.55078,-1.09961 -0.55079,-1.09961 -0.54882,-1.09961 -0.53907,-1.09961 a 0.25015,0.25015 0 0 0 -0.002,0 l -0.54883,-1.10937 a 0.25015,0.25015 0 0 0 0,-0.002 l -0.55078,-1.09961 -0.53906,-1.09765 a 0.25015,0.25015 0 0 0 0,-0.002 l -0.55078,-1.09961 -0.54883,-1.10938 a 0.25015,0.25015 0 0 0 -0.002,-0.002 l -0.54883,-1.08985 -0.55078,-1.10742 -0.53907,-1.09961 a 0.25015,0.25015 0 0 0 0,-0.002 l -0.55078,-1.10156 -0.55078,-1.09961 -0.54883,-1.09766 -0.53906,-1.10937 a 0.25015,0.25015 0 0 0 -0.002,-0.002 l -0.54883,-1.09961 -0.55078,-1.09961 -0.53906,-1.0996 a 0.25015,0.25015 0 0 0 0,-0.002 l -0.55078,-1.09961 -0.54883,-1.09961 -0.55078,-1.09961 -0.54883,-1.10937 -0.54102,-1.09961 a 0.25015,0.25015 0 0 0 0,-0.002 l -0.55078,-1.09961 -0.54883,-1.09961 -0.53906,-1.09961 a 0.25015,0.25015 0 0 0 -0.002,-0.002 l -0.54883,-1.09961 -0.55078,-1.10938 -0.54883,-1.09961 -0.54102,-1.09961 -0.55078,-1.10156 -0.54883,-1.09961 -0.55078,-1.09961 -0.54882,-1.09961 -0.53907,-1.10742 a 0.25015,0.25015 0 0 0 -0.002,-0.004 l -0.55078,-1.09961 -0.54883,-1.09961 -0.53906,-1.09765 a 0.25015,0.25015 0 0 0 -0.002,-0.002 l -0.54882,-1.09961 -0.55078,-1.09961 -0.54883,-1.10938 -0.54102,-1.09961 a 0.25015,0.25015 0 0 0 0,-0.002 l -0.55078,-1.09961 -0.54883,-1.10156 -0.55078,-1.09961 -0.54883,-1.09766 -0.53906,-1.09961 a 0.25015,0.25015 0 0 0 -0.002,-0.002 l -0.54883,-1.10938 -0.55078,-1.09961 -0.53906,-1.0996 a 0.25015,0.25015 0 0 0 -0.002,-0.002 l -0.54883,-1.09961 -0.55078,-1.09961 -0.54883,-1.09961 -0.55078,-1.10937 -0.53906,-1.09961 a 0.25015,0.25015 0 0 0 0,-0.002 l -0.55078,-1.09961 -0.55078,-1.09961 a 0.25015,0.25015 0 0 0 -0.22266,-0.13867 h -0.55078 -0.53906 -0.55078 -0.54883 -0.54102 -0.55078 -0.54883 -0.55078 -0.54883 -0.54101 -0.54883 H 263 h -0.55078 -0.53906 -0.55079 -0.54882 -0.54102 -0.54883 -0.55078 -0.55078 -0.54883 -0.54101 -0.54883 -0.55078 -0.53907 -0.55078 -0.55078 -0.54883 -0.54101 -0.54883 -0.55078 -0.54883 -0.55078 -0.53906 -0.55078 -0.55079 -0.53906 -0.55078 -0.54883 -0.55078 -0.55078 -0.53906 -0.55078 -0.54883 -0.55078 -0.53907 -0.55078 -0.55078 -0.53906 -0.55078 -0.54883 -0.55078 -0.54883 -0.54101 -0.54883 -0.55078 -0.55079 -0.53906 -0.55078 -0.54883 -0.54101 -0.54883 -0.55078 -0.55078 -0.54883 -0.54102 -0.54883 -0.55078 -0.53906 -0.55078 -0.55078 -0.54883 -0.55078 -0.53906 -0.55078 -0.54883 -0.55078 -0.54102 -0.54883 -0.55078 -0.53906 -0.55078 -0.54883 -0.55078 -0.54102 -0.54883 -0.55078 -0.54883 -0.55078 -0.53906 -0.55078 -0.55078 -0.53906 -0.55079 -0.54882 -0.55078 -0.54883 -0.54102 -0.55078 -0.54883 -0.55078 -0.53906 -0.55078 -0.54883 -0.54102 -0.55078 -0.54883 -0.55078 -0.53906 -0.55078 -0.54883 -0.55078 -0.55078 -0.53906 -0.55079 -0.54882 -0.54102 -0.54883 -0.55078 -0.55078 -0.54883 -0.54101 -0.54883 -0.55078 -0.53907 -0.55078 -0.55078 -0.54883 -0.54101 -0.54883 -0.55078 -0.54883 -0.55078 -0.53906 -0.55078 -0.55079 -0.53906 -0.55078 -0.54883 -0.55078 -0.53906 -0.55078 -0.55078 -0.54883 -0.55078 -0.53907 -0.55078 -0.55078 H 188 h -0.55078 -0.54883 -0.55078 -0.54883 -0.54101 -0.54883 -0.55078 -0.55079 -0.53906 -0.55078 -0.54883 -0.54101 -0.54883 -0.55078 -0.55078 -0.54883 -0.54102 -0.54883 -0.55078 -0.53906 -0.55078 -0.55078 -0.54883 -0.55078 -0.53906 -0.55078 -0.54883 -0.55078 -0.54102 -0.54883 -0.55078 -0.53906 -0.55078 -0.54883 -0.55078 -0.54102 -0.54883 -0.55078 -0.54883 -0.55078 -0.53906 H 165 h -0.55078 -0.53906 -0.55079 -0.54882 -0.55078 -0.54883 -0.54102 -0.55078 -0.54883 -0.55078 -0.53906 -0.55078 -0.54883 -0.54102 -0.55078 -0.54883 -0.55078 -0.53906 -0.55078 -0.54883 -0.55078 -0.55078 -0.53906 -0.55079 -0.54882 -0.54102 -0.54883 -0.55078 -0.55078 -0.54883 -0.54101 -0.54883 -0.55078 -0.53907 -0.55078 -0.55078 -0.54883 -0.54101 -0.54883 -0.55078 -0.54883 H 142 h -0.53906 -0.55078 -0.55079 -0.53906 -0.55078 -0.54883 -0.55078 -0.55078 -0.53906 -0.55078 -0.54883 -0.55078 -0.53907 -0.55078 -0.55078 -0.53906 -0.55078 -0.54883 -0.55078 -0.54883 -0.54101 -0.54883 -0.55078 -0.55079 -0.53906 -0.55078 -0.54883 -0.38672 l -0.48046,-0.96094 -0.54883,-1.10938 a 0.25015,0.25015 0 0 0 -0.002,-0.002 l -0.54882,-1.08984 -0.54883,-1.10742 -0.54102,-1.10938 a 0.25015,0.25015 0 0 0 0,-0.004 l -0.55078,-1.08984 -0.54883,-1.10742 -0.53906,-1.09961 a 0.25015,0.25015 0 0 0 -0.002,-0.004 l -0.54883,-1.08789 -0.55078,-1.10937 a 0.25015,0.25015 0 0 0 0,-0.002 l -0.54883,-1.09765 -0.54102,-1.10938 a 0.25015,0.25015 0 0 0 0,-0.004 l -0.55078,-1.08789 -0.54882,-1.10938 a 0.25015,0.25015 0 0 0 0,-0.002 l -0.55079,-1.09961 -0.54882,-1.08789 -0.53907,-1.10938 a 0.25015,0.25015 0 0 0 -0.002,-0.002 l -0.54883,-1.10938 a 0.25015,0.25015 0 0 0 -0.002,0 l -0.54883,-1.0996 -0.53906,-1.08985 -0.55078,-1.11133 -0.55078,-1.09961 -0.54883,-1.09961 -0.53906,-1.10937 a 0.25015,0.25015 0 0 0 -0.002,-0.002 l -0.55078,-1.095706 -0.54883,-1.101562 -0.55078,-1.097657 -0.54883,-1.101562 -0.53906,-1.09961 a 0.25015,0.25015 0 0 0 -0.002,-0.002 l -0.54883,-1.109375 -0.55078,-1.097656 -0.53906,-1.101562 a 0.25015,0.25015 0 0 0 -0.002,0 l -0.54883,-1.101563 -0.55078,-1.097656 -0.54882,-1.101563 -0.55079,-1.109375 -0.53906,-1.099609 a 0.25015,0.25015 0 0 0 0,-0.002 l -0.55078,-1.097656 -0.55078,-1.101563 -0.54883,-1.101562 -0.53906,-1.097657 a 0.25015,0.25015 0 0 0 -0.002,0 l -0.54883,-1.101562 -0.55078,-1.109375 -0.53907,-1.09961 a 0.25015,0.25015 0 0 0 0,-0.002 l -0.55078,-1.097656 -0.55078,-1.101562 -0.54883,-1.101563 -0.55078,-1.101562 -0.54101,-1.097657 -0.546879,-1.109375 -0.546875,-1.101562 -0.550782,-1.097656 -0.546875,-1.101563 -0.546875,-1.101562 -0.546875,-1.101563 -0.546875,-1.105469 -0.546875,-1.101562 -0.546875,-1.101563 -0.550781,-1.097656 -0.546875,-1.101562 -0.546875,-1.101563 -0.546875,-1.101562 -0.546875,-1.105469 -0.546875,-1.101563 a 0.25015,0.25015 0 0 0 -0.224609,-0.138672 z"
       id="polyline1092"
       transform="matrix(0.0017361,0,0,-0.0017361,-0.21981189,0.84557039)" />
    <polyline
       points="329.25,149.44 329.8,148.34 330.34,147.24 330.89,146.14 331.44,145.03 331.99,143.93 332.54,142.83 333.08,141.73 333.63,140.63 334.18,139.53 334.73,138.43 335.27,137.32 335.82,136.22 336.37,135.12 336.91,134.02 337.46,132.92 338.01,131.82 338.56,130.71 339.11,129.61 339.65,128.51 340.2,127.41 340.75,127.41 341.3,127.41 341.84,127.41 342.39,127.41 342.94,127.41 343.48,127.41 344.03,127.41 344.58,127.41 345.13,127.41 345.68,127.41 346.22,127.41 346.77,127.41 347.32,127.41 347.86,127.41 348.41,127.41 348.96,127.41 349.51,127.41 350.05,127.41 350.6,127.41 351.15,127.41 351.7,127.41 352.25,127.41 352.79,127.41 353.34,127.41 353.89,127.41 354.43,127.41 354.98,127.41 355.53,127.41 356.08,127.41 356.62,127.41 357.17,127.41 357.72,127.41 358.27,127.41 358.82,127.41 359.36,127.41 359.91,127.41 360.46,127.41 361,127.41 361.55,127.41 362.1,127.41 362.65,127.41 363.2,127.41 363.74,127.41 364.29,127.41 364.84,127.41 365.39,127.41 365.93,127.41 366.48,127.41 "
       stroke="#ff0000"
       stroke-width="0.50025"
       stroke-linejoin="round"
       id="polyline1094"
       transform="matrix(0.0017361,0,0,-0.0017361,-0.21981189,0.84557039)"
       style="font-style:normal;font-variant:normal;font-weight:normal;font-stretch:normal;letter-spacing:normal;word-spacing:normal;text-anchor:start;fill:none;fill-opacity:1;fill-rule:evenodd;stroke:#00ff00;stroke-width:5.44018;stroke-linecap:butt;stroke-miterlimit:4;stroke-dasharray:none;stroke-dashoffset:0;stroke-opacity:1" />
  </g>
  <path
     style="fill:none;fill-opacity:1;stroke:#00ff00;stroke-width:0.00211832;stroke-linecap:butt;stroke-linejoin:miter;stroke-miterlimit:4;stroke-dasharray:none;stroke-opacity:1"
     d="M 0.1250233,0.1685581 H 0.25259821"
     id="path1888" />
  <path
     style="fill:none;fill-opacity:1;stroke:#c8c8c8;stroke-width:0.0323482;stroke-linecap:butt;stroke-linejoin:miter;stroke-miterlimit:4;stroke-dasharray:none;stroke-opacity:1"
     d="m 0.37352756,0.06910137 h 0.0614426"
     id="path1953"
     sodipodi:nodetypes="cc" />
  <text
     xml:space="preserve"
     style="font-style:normal;font-variant:normal;font-weight:normal;font-stretch:normal;font-size:0.015625px;line-height:1.25;font-family:sans-serif;-inkscape-font-specification:'sans-serif, Normal';font-variant-ligatures:normal;font-variant-caps:normal;font-variant-numeric:normal;font-variant-east-asian:normal;letter-spacing:0px;word-spacing:0px;fill:#000000;fill-opacity:1;stroke:none;stroke-width:0.000471081"
     x="0.38774931"
     y="0.074736632"
     id="text4932"><tspan
       sodipodi:role="line"
       id="tspan4930"
       style="font-style:normal;font-variant:normal;font-weight:normal;font-stretch:normal;font-size:0.015625px;font-family:sans-serif;-inkscape-font-specification:'sans-serif, Normal';font-variant-ligatures:normal;font-variant-caps:normal;font-variant-numeric:normal;font-variant-east-asian:normal;stroke-width:0.000471081"
       x="0.38774931"
       y="0.074736632">DAQ</tspan></text>
  <text
     xml:space="preserve"
     style="font-style:normal;font-variant:normal;font-weight:normal;font-stretch:normal;font-size:0.015625px;line-height:1.25;font-family:sans-serif;-inkscape-font-specification:'sans-serif, Normal';font-variant-ligatures:normal;font-variant-caps:normal;font-variant-numeric:normal;font-variant-east-asian:normal;letter-spacing:0px;word-spacing:0px;fill:#000000;fill-opacity:1;stroke:none;stroke-width:0.000471081"
     x="0.096458748"
     y="0.098090276"
     id="text7136"><tspan
       sodipodi:role="line"
       id="tspan7134"
       style="font-style:normal;font-variant:normal;font-weight:normal;font-stretch:normal;font-size:0.015625px;font-family:sans-serif;-inkscape-font-specification:'sans-serif, Normal';font-variant-ligatures:normal;font-variant-caps:normal;font-variant-numeric:normal;font-variant-east-asian:normal;stroke-width:0.000471081"
       x="0.096458748"
       y="0.098090276">RF</tspan></text>
  <text
     xml:space="preserve"
     style="font-style:normal;font-variant:normal;font-weight:normal;font-stretch:normal;font-size:0.015625px;line-height:1.25;font-family:sans-serif;-inkscape-font-specification:'sans-serif, Normal';font-variant-ligatures:normal;font-variant-caps:normal;font-variant-numeric:normal;font-variant-east-asian:normal;letter-spacing:0px;word-spacing:0px;fill:#000000;fill-opacity:1;stroke:none;stroke-width:0.000471081"
     x="0.096458748"
     y="0.13360028"
     id="text7422"><tspan
       sodipodi:role="line"
       id="tspan7420"
       style="font-style:normal;font-variant:normal;font-weight:normal;font-stretch:normal;font-size:0.015625px;font-family:sans-serif;-inkscape-font-specification:'sans-serif, Normal';font-variant-ligatures:normal;font-variant-caps:normal;font-variant-numeric:normal;font-variant-east-asian:normal;stroke-width:0.000471081"
       x="0.096458748"
       y="0.13360028">Gx</tspan></text>
  <text
     xml:space="preserve"
     style="font-style:normal;font-variant:normal;font-weight:normal;font-stretch:normal;font-size:0.015625px;line-height:1.25;font-family:sans-serif;-inkscape-font-specification:'sans-serif, Normal';font-variant-ligatures:normal;font-variant-caps:normal;font-variant-numeric:normal;font-variant-east-asian:normal;letter-spacing:0px;word-spacing:0px;fill:#000000;fill-opacity:1;stroke:none;stroke-width:0.000471081"
     x="0.096458748"
     y="0.17285119"
     id="text7426"><tspan
       sodipodi:role="line"
       id="tspan7424"
       style="font-style:normal;font-variant:normal;font-weight:normal;font-stretch:normal;font-size:0.015625px;font-family:sans-serif;-inkscape-font-specification:'sans-serif, Normal';font-variant-ligatures:normal;font-variant-caps:normal;font-variant-numeric:normal;font-variant-east-asian:normal;stroke-width:0.000471081"
       x="0.096458748"
       y="0.17285119">Gy</tspan></text>
  <text
     xml:space="preserve"
     style="font-style:normal;font-variant:normal;font-weight:normal;font-stretch:normal;font-size:0.015625px;line-height:1.25;font-family:sans-serif;-inkscape-font-specification:'sans-serif, Normal';font-variant-ligatures:normal;font-variant-caps:normal;font-variant-numeric:normal;font-variant-east-asian:normal;letter-spacing:0px;word-spacing:0px;fill:#000000;fill-opacity:1;stroke:none;stroke-width:0.000471081"
     x="0.096458748"
     y="0.21362087"
     id="text7430"><tspan
       sodipodi:role="line"
       id="tspan7428"
       style="font-style:normal;font-variant:normal;font-weight:normal;font-stretch:normal;font-size:0.015625px;font-family:sans-serif;-inkscape-font-specification:'sans-serif, Normal';font-variant-ligatures:normal;font-variant-caps:normal;font-variant-numeric:normal;font-variant-east-asian:normal;stroke-width:0.000471081"
       x="0.096458748"
       y="0.21362087">Gz</tspan></text>
  <text
     xml:space="preserve"
     style="font-style:normal;font-variant:normal;font-weight:normal;font-stretch:normal;font-size:0.015625px;line-height:1.25;font-family:sans-serif;-inkscape-font-specification:'sans-serif, Normal';font-variant-ligatures:normal;font-variant-caps:normal;font-variant-numeric:normal;font-variant-east-asian:normal;letter-spacing:0px;word-spacing:0px;fill:#000000;fill-opacity:1;stroke:none;stroke-width:0.000471081"
     x="0.31034958"
     y="0.13518022"
     id="text8122"><tspan
       sodipodi:role="line"
       id="tspan8120"
       style="font-style:normal;font-variant:normal;font-weight:normal;font-stretch:normal;font-size:0.015625px;font-family:sans-serif;-inkscape-font-specification:'sans-serif, Normal';font-variant-ligatures:normal;font-variant-caps:normal;font-variant-numeric:normal;font-variant-east-asian:normal;stroke-width:0.000471081"
       x="0.31034958"
       y="0.13518022">Gx</tspan></text>
  <text
     xml:space="preserve"
     style="font-style:normal;font-variant:normal;font-weight:normal;font-stretch:normal;font-size:0.015625px;line-height:1.25;font-family:sans-serif;-inkscape-font-specification:'sans-serif, Normal';font-variant-ligatures:normal;font-variant-caps:normal;font-variant-numeric:normal;font-variant-east-asian:normal;letter-spacing:0px;word-spacing:0px;fill:#000000;fill-opacity:1;stroke:none;stroke-width:0.000471081"
     x="0.31034958"
     y="0.18198679"
     id="text8126"><tspan
       sodipodi:role="line"
       id="tspan8124"
       style="font-style:normal;font-variant:normal;font-weight:normal;font-stretch:normal;font-size:0.015625px;font-family:sans-serif;-inkscape-font-specification:'sans-serif, Normal';font-variant-ligatures:normal;font-variant-caps:normal;font-variant-numeric:normal;font-variant-east-asian:normal;stroke-width:0.000471081"
       x="0.31034958"
       y="0.18198679">Gy</tspan></text>
  <text
     xml:space="preserve"
     style="font-style:normal;font-variant:normal;font-weight:normal;font-stretch:normal;font-size:0.015625px;line-height:1.25;font-family:sans-serif;-inkscape-font-specification:'sans-serif, Normal';font-variant-ligatures:normal;font-variant-caps:normal;font-variant-numeric:normal;font-variant-east-asian:normal;letter-spacing:0px;word-spacing:0px;fill:#000000;fill-opacity:1;stroke:none;stroke-width:0.000471081"
     x="0.31034958"
     y="0.22841157"
     id="text8130"><tspan
       sodipodi:role="line"
       id="tspan8128"
       style="font-style:normal;font-variant:normal;font-weight:normal;font-stretch:normal;font-size:0.015625px;font-family:sans-serif;-inkscape-font-specification:'sans-serif, Normal';font-variant-ligatures:normal;font-variant-caps:normal;font-variant-numeric:normal;font-variant-east-asian:normal;stroke-width:0.000471081"
       x="0.31034958"
       y="0.22841157">Gz</tspan></text>
  <rect
     style="fill:none;stroke:#c8c8c8;stroke-width:0.00249999"
     id="rect875"
     width="0.18269596"
     height="0.22432943"
     x="0.08594007"
     y="0.020058574"
     rx="0.0058012349"
     ry="0.0058012349" />
  <rect
     style="fill:#ffffff;fill-opacity:1;stroke:#c8c8c8;stroke-width:0.00223447"
     id="rect979"
     width="0.13994049"
     height="0.024499759"
     x="0.10919391"
     y="0.0065829954"
     rx="0.005174621"
     ry="0.0051955855" />
  <text
     xml:space="preserve"
     style="font-style:normal;font-variant:normal;font-weight:normal;font-stretch:normal;font-size:0.015625px;line-height:1.25;font-family:sans-serif;-inkscape-font-specification:'sans-serif, Normal';font-variant-ligatures:normal;font-variant-caps:normal;font-variant-numeric:normal;font-variant-east-asian:normal;letter-spacing:0px;word-spacing:0px;fill:#000000;fill-opacity:1;stroke:none;stroke-width:0.000471081"
     x="0.12176259"
     y="0.023809226"
     id="text1135"><tspan
       sodipodi:role="line"
       id="tspan1133"
       style="font-style:normal;font-variant:normal;font-weight:normal;font-stretch:normal;font-size:0.015625px;font-family:sans-serif;-inkscape-font-specification:'sans-serif, Normal';font-variant-ligatures:normal;font-variant-caps:normal;font-variant-numeric:normal;font-variant-east-asian:normal;stroke-width:0.000471081"
       x="0.12176259"
       y="0.023809226">Parent block 1</tspan></text>
  <rect
     style="fill:none;stroke:#c8c8c8;stroke-width:0.00249999"
     id="rect1531"
     width="0.18269596"
     height="0.22432943"
     x="0.30477709"
     y="0.020058574"
     rx="0.0058012349"
     ry="0.0058012349" />
  <rect
     style="fill:#ffffff;fill-opacity:1;stroke:#c8c8c8;stroke-width:0.00223447"
     id="rect1533"
     width="0.13994049"
     height="0.024499759"
     x="0.32803094"
     y="0.0065829954"
     rx="0.005174621"
     ry="0.0051955855" />
  <text
     xml:space="preserve"
     style="font-style:normal;font-variant:normal;font-weight:normal;font-stretch:normal;font-size:0.015625px;line-height:1.25;font-family:sans-serif;-inkscape-font-specification:'sans-serif, Normal';font-variant-ligatures:normal;font-variant-caps:normal;font-variant-numeric:normal;font-variant-east-asian:normal;letter-spacing:0px;word-spacing:0px;fill:#000000;fill-opacity:1;stroke:none;stroke-width:0.000471081"
     x="0.3405996"
     y="0.023809226"
     id="text1537"><tspan
       sodipodi:role="line"
       id="tspan1535"
       style="font-style:normal;font-variant:normal;font-weight:normal;font-stretch:normal;font-size:0.015625px;font-family:sans-serif;-inkscape-font-specification:'sans-serif, Normal';font-variant-ligatures:normal;font-variant-caps:normal;font-variant-numeric:normal;font-variant-east-asian:normal;stroke-width:0.000471081"
       x="0.3405996"
       y="0.023809226">Parent block 2</tspan></text>
  <circle
     style="fill:#ffffff;fill-opacity:1;stroke:#000000;stroke-width:0.00249999;stroke-opacity:1"
     id="path3169"
     cx="0.062871665"
     cy="0.339241"
     r="0.0069518518" />
  <path
     style="fill:none;stroke:#000000;stroke-width:0.0025;stroke-linecap:butt;stroke-linejoin:miter;stroke-miterlimit:4;stroke-dasharray:none;stroke-opacity:1;marker-end:url(#marker60789)"
     d="M 0.06987679,0.33944772 H 0.67433788"
     id="path3350"
     sodipodi:nodetypes="cc" />
  <path
     style="fill:none;stroke:#000000;stroke-width:0.00125;stroke-linecap:butt;stroke-linejoin:miter;stroke-miterlimit:4;stroke-dasharray:0.00375, 0.00375;stroke-dashoffset:0;stroke-opacity:1;marker-end:url(#Arrow1Mend)"
     d="M 0.06814649,0.3335093 0.10960699,0.2480279"
     id="path3651"
     sodipodi:nodetypes="cc" />
  <text
     xml:space="preserve"
     style="font-style:normal;font-variant:normal;font-weight:normal;font-stretch:normal;font-size:0.0138889px;line-height:1.25;font-family:monospace;-inkscape-font-specification:'monospace, Normal';font-variant-ligatures:normal;font-variant-caps:normal;font-variant-numeric:normal;font-variant-east-asian:normal;letter-spacing:0px;word-spacing:0px;fill:#000000;fill-opacity:1;stroke:none;stroke-width:0.000471081"
     x="0.0097264796"
     y="0.36960933"
     id="text4068"><tspan
       sodipodi:role="line"
       id="tspan4066"
       style="font-style:normal;font-variant:normal;font-weight:normal;font-stretch:normal;font-size:0.0138889px;font-family:monospace;-inkscape-font-specification:'monospace, Normal';font-variant-ligatures:normal;font-variant-caps:normal;font-variant-numeric:normal;font-variant-east-asian:normal;stroke-width:0.000471081"
       x="0.0097264796"
       y="0.36960933">RF.amp = 13 uT;</tspan></text>
  <rect
     style="fill:#e1e1e1;fill-opacity:1;stroke:none;stroke-width:0.00335481"
     id="rect45286"
     width="0.42523357"
     height="0.17355941"
     x="0.08636748"
     y="0.41265127"
     rx="0.013502652"
     ry="0.0044883052" />
  <text
     xml:space="preserve"
     style="font-style:normal;font-variant:normal;font-weight:normal;font-stretch:normal;font-size:0.0138889px;line-height:1.25;font-family:monospace;-inkscape-font-specification:'monospace, Normal';font-variant-ligatures:normal;font-variant-caps:normal;font-variant-numeric:normal;font-variant-east-asian:normal;letter-spacing:0px;word-spacing:0px;fill:#000000;fill-opacity:1;stroke:none;stroke-width:0.000471081"
     x="0.11237781"
     y="0.4350251"
     id="text4068-2"><tspan
       sodipodi:role="line"
       id="tspan4066-7"
       style="font-style:normal;font-variant:normal;font-weight:normal;font-stretch:normal;font-size:0.0138889px;font-family:monospace;-inkscape-font-specification:'monospace, Normal';font-variant-ligatures:normal;font-variant-caps:normal;font-variant-numeric:normal;font-variant-east-asian:normal;stroke-width:0.000471081"
       x="0.11237781"
       y="0.4350251">ParentBlock parentBlock1, parentBlock2;</tspan><tspan
       sodipodi:role="line"
       style="font-style:normal;font-variant:normal;font-weight:normal;font-stretch:normal;font-size:0.0138889px;font-family:monospace;-inkscape-font-specification:'monospace, Normal';font-variant-ligatures:normal;font-variant-caps:normal;font-variant-numeric:normal;font-variant-east-asian:normal;stroke-width:0.000471081"
       x="0.11237781"
       y="0.45238623"
       id="tspan15706">...</tspan><tspan
       sodipodi:role="line"
       style="font-style:normal;font-variant:normal;font-weight:normal;font-stretch:normal;font-size:0.0138889px;font-family:monospace;-inkscape-font-specification:'monospace, Normal';font-variant-ligatures:normal;font-variant-caps:normal;font-variant-numeric:normal;font-variant-east-asian:normal;stroke-width:0.000471081"
       x="0.11237781"
       y="0.46974733"
       id="tspan16800">parentBlock1.RF.amp = 13;</tspan><tspan
       sodipodi:role="line"
       style="font-style:normal;font-variant:normal;font-weight:normal;font-stretch:normal;font-size:0.0138889px;font-family:monospace;-inkscape-font-specification:'monospace, Normal';font-variant-ligatures:normal;font-variant-caps:normal;font-variant-numeric:normal;font-variant-east-asian:normal;stroke-width:0.000471081"
       x="0.11237781"
       y="0.48710847"
       id="tspan41838"><tspan
   style="stroke:#ff0000;stroke-opacity:1"
   id="tspan44360">parentBlock2.Gx.amp</tspan> = 0.035;</tspan><tspan
       sodipodi:role="line"
       style="font-style:normal;font-variant:normal;font-weight:normal;font-stretch:normal;font-size:0.0138889px;font-family:monospace;-inkscape-font-specification:'monospace, Normal';font-variant-ligatures:normal;font-variant-caps:normal;font-variant-numeric:normal;font-variant-east-asian:normal;stroke-width:0.000471081"
       x="0.11237781"
       y="0.50446957"
       id="tspan15708">for (n = 0; n &lt; nTR; n++) {</tspan><tspan
       sodipodi:role="line"
       style="font-style:normal;font-variant:normal;font-weight:normal;font-stretch:normal;font-size:0.0138889px;font-family:monospace;-inkscape-font-specification:'monospace, Normal';font-variant-ligatures:normal;font-variant-caps:normal;font-variant-numeric:normal;font-variant-east-asian:normal;stroke-width:0.000471081"
       x="0.11237781"
       y="0.52183074"
       id="tspan16794">    play(parentBlock1);</tspan><tspan
       sodipodi:role="line"
       style="font-style:normal;font-variant:normal;font-weight:normal;font-stretch:normal;font-size:0.0138889px;font-family:monospace;-inkscape-font-specification:'monospace, Normal';font-variant-ligatures:normal;font-variant-caps:normal;font-variant-numeric:normal;font-variant-east-asian:normal;stroke-width:0.000471081"
       x="0.11237781"
       y="0.53919184"
       id="tspan16792">    <tspan
   style="stroke:#00ff00;stroke-opacity:1"
   id="tspan31014">parentBlock2.Gy.amp</tspan> = 0.03*(n-nTR/2)/nTR;</tspan><tspan
       sodipodi:role="line"
       style="font-style:normal;font-variant:normal;font-weight:normal;font-stretch:normal;font-size:0.0138889px;font-family:monospace;-inkscape-font-specification:'monospace, Normal';font-variant-ligatures:normal;font-variant-caps:normal;font-variant-numeric:normal;font-variant-east-asian:normal;stroke-width:0.000471081"
       x="0.11237781"
       y="0.55655295"
       id="tspan20362">    play(parentBlock2);</tspan><tspan
       sodipodi:role="line"
       style="font-style:normal;font-variant:normal;font-weight:normal;font-stretch:normal;font-size:0.0138889px;font-family:monospace;-inkscape-font-specification:'monospace, Normal';font-variant-ligatures:normal;font-variant-caps:normal;font-variant-numeric:normal;font-variant-east-asian:normal;stroke-width:0.000471081"
       x="0.11237781"
       y="0.57391411"
       id="tspan20364">}</tspan><tspan
       sodipodi:role="line"
       style="font-style:normal;font-variant:normal;font-weight:normal;font-stretch:normal;font-size:0.0138889px;font-family:monospace;-inkscape-font-specification:'monospace, Normal';font-variant-ligatures:normal;font-variant-caps:normal;font-variant-numeric:normal;font-variant-east-asian:normal;stroke-width:0.000471081"
       x="0.11237781"
       y="0.59127522"
       id="tspan15710" /></text>
  <circle
     style="fill:#ffffff;fill-opacity:1;stroke:#000000;stroke-width:0.00249999;stroke-opacity:1"
     id="circle4943"
     cx="0.24776749"
     cy="0.339241"
     r="0.0069518518" />
  <path
     style="fill:none;stroke:#000000;stroke-width:0.00125;stroke-linecap:butt;stroke-linejoin:miter;stroke-miterlimit:4;stroke-dasharray:0.00375, 0.00375;stroke-dashoffset:0;stroke-opacity:1;marker-end:url(#Arrow1Mend)"
     d="m 0.25314108,0.33390926 0.0760647,-0.0841108"
     id="path4945"
     sodipodi:nodetypes="cc" />
  <text
     xml:space="preserve"
     style="font-style:normal;font-variant:normal;font-weight:normal;font-stretch:normal;font-size:0.0138889px;line-height:1.25;font-family:monospace;-inkscape-font-specification:'monospace, Normal';font-variant-ligatures:normal;font-variant-caps:normal;font-variant-numeric:normal;font-variant-east-asian:normal;letter-spacing:0px;word-spacing:0px;fill:#000000;fill-opacity:1;stroke:#00ff00;stroke-width:0.000471081;stroke-opacity:1"
     x="0.17052563"
     y="0.36960933"
     id="text4949"><tspan
       sodipodi:role="line"
       id="tspan4947"
       style="font-style:normal;font-variant:normal;font-weight:normal;font-stretch:normal;font-size:0.0138889px;font-family:monospace;-inkscape-font-specification:'monospace, Normal';font-variant-ligatures:normal;font-variant-caps:normal;font-variant-numeric:normal;font-variant-east-asian:normal;stroke:#00ff00;stroke-width:0.000471081;stroke-opacity:1"
       x="0.17052563"
       y="0.36960933">Gy.amp = -0.03 mT/m;</tspan></text>
  <circle
     style="fill:#ffffff;fill-opacity:1;stroke:#000000;stroke-width:0.00249999;stroke-opacity:1"
     id="circle6329"
     cx="0.41615722"
     cy="0.339241"
     r="0.0069518518" />
  <path
     style="fill:none;stroke:#000000;stroke-width:0.00125;stroke-linecap:butt;stroke-linejoin:miter;stroke-miterlimit:4;stroke-dasharray:0.00375, 0.00375;stroke-dashoffset:0;stroke-opacity:1;marker-end:url(#Arrow1Mend)"
     d="M 0.41076324,0.33453179 0.26863604,0.24438798"
     id="path6331"
     sodipodi:nodetypes="cc" />
  <circle
     style="fill:#ffffff;fill-opacity:1;stroke:#000000;stroke-width:0.00249999;stroke-opacity:1"
     id="circle7284"
     cx="0.56026751"
     cy="0.339241"
     r="0.0069518518" />
  <path
     style="fill:none;stroke:#000000;stroke-width:0.00125;stroke-linecap:butt;stroke-linejoin:miter;stroke-miterlimit:4;stroke-dasharray:0.00375, 0.00375;stroke-dashoffset:0;stroke-opacity:1;marker-end:url(#Arrow1Mend)"
     d="M 0.55625389,0.33306975 0.48747303,0.24438798"
     id="path7286"
     sodipodi:nodetypes="cc" />
  <text
     xml:space="preserve"
     style="font-style:normal;font-variant:normal;font-weight:normal;font-stretch:normal;font-size:0.0138889px;line-height:1.25;font-family:monospace;-inkscape-font-specification:'monospace, Normal';font-variant-ligatures:normal;font-variant-caps:normal;font-variant-numeric:normal;font-variant-east-asian:normal;letter-spacing:0px;word-spacing:0px;fill:#000000;fill-opacity:1;stroke:#00ff00;stroke-width:0.000471081;stroke-opacity:1"
     x="0.48302558"
     y="0.36960933"
     id="text7290"><tspan
       sodipodi:role="line"
       id="tspan7288"
       style="font-style:normal;font-variant:normal;font-weight:normal;font-stretch:normal;font-size:0.0138889px;font-family:monospace;-inkscape-font-specification:'monospace, Normal';font-variant-ligatures:normal;font-variant-caps:normal;font-variant-numeric:normal;font-variant-east-asian:normal;stroke:#00ff00;stroke-width:0.000471081;stroke-opacity:1"
       x="0.48302558"
       y="0.36960933">Gy.amp = -0.028 mT/m;</tspan></text>
  <text
     xml:space="preserve"
     style="font-style:normal;font-variant:normal;font-weight:normal;font-stretch:normal;font-size:0.0193604px;line-height:1.25;font-family:sans-serif;-inkscape-font-specification:'sans-serif, Normal';font-variant-ligatures:normal;font-variant-caps:normal;font-variant-numeric:normal;font-variant-east-asian:normal;letter-spacing:0px;word-spacing:0px;fill:#000000;fill-opacity:1;stroke:none;stroke-width:0.000583702"
     x="0.62673163"
     y="0.3219513"
     id="text8822"><tspan
       sodipodi:role="line"
       id="tspan8820"
       style="font-style:normal;font-variant:normal;font-weight:normal;font-stretch:normal;font-size:0.0193604px;font-family:sans-serif;-inkscape-font-specification:'sans-serif, Normal';font-variant-ligatures:normal;font-variant-caps:normal;font-variant-numeric:normal;font-variant-east-asian:normal;stroke-width:0.000583702"
       x="0.62673163"
       y="0.3219513">time</tspan></text>
</svg>
